HIERARCHY
ROOT root
{
	OFFSET 0.000000 0.000000 0.000000
	CHANNELS 6 Xposition Yposition Zposition Zrotation Yrotation Xrotation
	JOINT lhip
	{
		OFFSET 0.058581 -0.082280 -0.017664
		CHANNELS 3 Zrotation Yrotation Xrotation
		JOINT lknee
		{
			OFFSET 0.043451 -0.386469 0.008037
			CHANNELS 3 Zrotation Yrotation Xrotation
			JOINT lankle
			{
				OFFSET -0.014790 -0.426874 -0.037428
				CHANNELS 3 Zrotation Yrotation Xrotation
				JOINT ltoe
				{
					OFFSET 0.041054 -0.060286 0.122042
					CHANNELS 3 Zrotation Yrotation Xrotation
					End Site
					{
						OFFSET 0.000000 0.000000 0.000000
					}
				}
			}
		}
	}
	JOINT rhip
	{
		OFFSET -0.060310 -0.090513 -0.013543
		CHANNELS 3 Zrotation Yrotation Xrotation
		JOINT rknee
		{
			OFFSET -0.043257 -0.383688 -0.004843
			CHANNELS 3 Zrotation Yrotation Xrotation
			JOINT rankle
			{
				OFFSET 0.019056 -0.420046 -0.034562
				CHANNELS 3 Zrotation Yrotation Xrotation
				JOINT rtoe
				{
					OFFSET -0.034840 -0.062106 0.130323
					CHANNELS 3 Zrotation Yrotation Xrotation
					End Site
					{
						OFFSET 0.000000 0.000000 0.000000
					}
				}
			}
		}
	}
	JOINT lowerback
	{
		OFFSET 0.004439 0.124404 -0.038385
		CHANNELS 3 Zrotation Yrotation Xrotation
		JOINT upperback
		{
			OFFSET 0.004488 0.137956 0.026820
			CHANNELS 3 Zrotation Yrotation Xrotation
			JOINT chest
			{
				OFFSET -0.002265 0.056032 0.002855
				CHANNELS 3 Zrotation Yrotation Xrotation
				JOINT lowerneck
				{
					OFFSET -0.013390 0.211636 -0.033468
					CHANNELS 3 Zrotation Yrotation Xrotation
					JOINT upperneck
					{
						OFFSET 0.010113 0.088937 0.050410
						CHANNELS 3 Zrotation Yrotation Xrotation
						End Site
						{
							OFFSET 0.000000 0.000000 0.000000
						}
					}
				}
				JOINT lclavicle
				{
					OFFSET 0.071702 0.114000 -0.018898
					CHANNELS 3 Zrotation Yrotation Xrotation
					JOINT lshoulder
					{
						OFFSET 0.122921 0.045205 -0.019046
						CHANNELS 3 Zrotation Yrotation Xrotation
						JOINT lelbow
						{
							OFFSET 0.255332 -0.015649 -0.022946
							CHANNELS 3 Zrotation Yrotation Xrotation
							JOINT lwrist
							{
								OFFSET 0.265709 0.012698 -0.007375
								CHANNELS 3 Zrotation Yrotation Xrotation
								End Site
								{
									OFFSET 0.000000 0.000000 0.000000
								}
							}
						}
					}
				}
				JOINT rclavicle
				{
					OFFSET -0.082954 0.112472 -0.023707
					CHANNELS 3 Zrotation Yrotation Xrotation
					JOINT rshoulder
					{
						OFFSET -0.113228 0.046853 -0.008472
						CHANNELS 3 Zrotation Yrotation Xrotation
						JOINT relbow
						{
							OFFSET -0.260127 -0.014369 -0.031269
							CHANNELS 3 Zrotation Yrotation Xrotation
							JOINT rwrist
							{
								OFFSET -0.269108 0.006794 -0.006027
								CHANNELS 3 Zrotation Yrotation Xrotation
								End Site
								{
									OFFSET 0.000000 0.000000 0.000000
								}
							}
						}
					}
				}
			}
		}
	}
}
MOTION
Frames: 14
Frame Time: 0.033333
-0.412761 0.025094 0.984377 99.932107 -0.282182 88.938649 4.622658 -0.333383 -4.978044 -4.214111 -5.849916 15.360034 0.667551 5.043768 -12.558188 0.000000 -0.000000 0.000000 0.321173 -3.677515 -5.589088 -0.329589 -2.522448 18.068952 0.522114 -6.506867 -18.196393 0.000000 -0.000000 0.000000 -0.263112 0.942334 1.511853 2.285536 -3.452800 0.925624 -0.466923 -1.991647 2.088047 1.345867 4.916351 -5.909406 -1.167964 -2.268986 0.524181 -15.833653 7.778372 -2.286659 -67.292309 -12.004020 14.102912 4.335153 -24.060642 21.143998 -11.380049 2.983241 -13.476014 15.482790 -5.573780 -4.931575 68.632294 8.565473 13.689789 -10.646614 12.078990 -4.711564 14.539905 2.145868 -25.586886 
-0.412482 0.023612 0.984409 100.169135 -0.422055 88.971584 4.447690 -0.453348 -5.130791 -4.110914 -6.141711 15.465826 0.568686 5.248784 -12.507743 0.000000 -0.000000 0.000000 0.289015 -3.598054 -5.581737 -0.361056 -2.834445 18.029548 0.533904 -6.659096 -18.288349 0.000000 -0.000000 0.000000 -0.179157 0.824845 1.589586 2.109237 -3.270271 0.833974 -0.589046 -1.785819 2.037852 1.326360 5.241028 -5.887153 -1.315905 -2.089720 0.478887 -15.778164 7.869213 -2.156133 -67.284877 -11.917791 14.456861 4.463433 -24.777545 21.434790 -11.329384 3.173049 -14.108694 15.564841 -5.423952 -4.674542 68.616683 8.654592 14.242517 -10.834210 12.252697 -4.850407 14.178892 1.883737 -26.423905 
-0.411913 0.022147 0.984468 100.476131 -0.453683 88.861841 4.487291 -0.428698 -5.150565 -4.151434 -6.429358 15.666067 0.350599 5.268102 -12.512525 0.000000 -0.000000 0.000000 0.441703 -3.680439 -5.299224 -0.464361 -2.864404 17.818326 0.422185 -6.836350 -18.357114 0.000000 -0.000000 0.000000 -0.128741 0.923797 1.774550 2.008509 -3.213147 0.871718 -0.551638 -1.750960 1.881425 1.215634 5.368889 -5.876363 -1.266845 -1.804487 0.494974 -15.777785 7.736730 -2.099355 -67.265872 -11.766513 14.314201 4.452640 -24.750774 21.270563 -11.016567 3.298339 -14.254127 15.389218 -5.260135 -4.523709 68.586326 8.571372 14.195361 -10.720481 12.775349 -4.759076 14.193125 1.758427 -26.918768 
-0.412122 0.020985 0.984556 100.630186 -0.535704 88.819425 4.394418 -0.534373 -5.333363 -4.116628 -6.570011 16.060550 0.410166 5.299706 -12.657615 0.000000 -0.000000 0.000000 0.424336 -3.611216 -5.230382 -0.375932 -2.910286 17.815780 0.314758 -7.039944 -18.463683 0.000000 -0.000000 0.000000 -0.051616 0.919953 2.064950 1.890070 -3.125876 0.739314 -0.620996 -1.629542 1.877841 1.207583 5.736614 -5.893172 -1.204678 -1.519958 0.390717 -15.680080 7.777262 -2.201706 -67.105389 -11.441667 14.353225 4.037855 -24.515649 21.435691 -10.643817 3.397033 -14.421300 15.468866 -5.057503 -4.604578 68.473990 8.968532 14.347068 -10.554581 12.609180 -4.812697 13.684628 1.768002 -26.850139 
-0.412264 0.020684 0.984563 100.701543 -0.560364 88.882937 4.368013 -0.586082 -5.491535 -4.103010 -6.530103 16.214732 0.481927 5.337412 -12.728135 0.000000 -0.000000 0.000000 0.412699 -3.570087 -5.318319 -0.316707 -2.930001 17.833419 0.249885 -7.170555 -18.392013 0.000000 -0.000000 0.000000 -0.033265 0.955722 2.001914 1.891141 -3.070136 0.729296 -0.611370 -1.615945 1.955648 1.168144 5.764325 -5.867052 -1.222058 -1.371953 0.329992 -15.618509 7.707918 -2.126431 -67.214085 -11.315852 14.436022 4.125929 -23.772463 21.653253 -10.890423 3.714450 -14.640789 15.483724 -4.899129 -4.686108 68.330316 9.127512 14.472226 -10.504719 12.609044 -4.683621 13.679040 2.033882 -27.022272 
-0.411294 0.020189 0.984864 100.666279 -0.598053 88.935361 4.370025 -0.397283 -5.539973 -4.152764 -6.384403 16.376529 0.568094 5.269680 -12.805676 0.000000 -0.000000 0.000000 0.462834 -3.909154 -5.250530 -0.367680 -2.627623 17.695199 0.183978 -7.022787 -18.427993 0.000000 -0.000000 0.000000 -0.218586 1.231794 1.573109 2.026059 -3.181010 1.143351 -0.530086 -1.606093 1.836082 1.228857 5.639581 -5.486535 -1.326187 -1.378871 0.246144 -15.842020 7.651400 -1.979254 -67.014515 -11.162642 14.282448 4.097505 -23.130895 21.421149 -10.556381 3.563465 -14.382203 15.611411 -4.832830 -4.570991 68.011322 9.420442 14.492344 -10.433212 12.982537 -4.206286 13.644644 2.034185 -26.990787 
-0.411151 0.020216 0.984835 100.681898 -0.611179 89.003378 4.321902 -0.434537 -5.682024 -4.205104 -6.494901 16.514485 0.635794 5.490934 -12.796791 0.000000 -0.000000 0.000000 0.475814 -3.905790 -5.242922 -0.353229 -2.565036 17.553047 0.086221 -7.120570 -18.389310 0.000000 -0.000000 0.000000 -0.205708 1.332289 1.469892 2.031085 -3.165978 1.170226 -0.544865 -1.574882 1.819466 1.171201 5.835356 -5.250415 -1.377224 -1.183867 0.393557 -15.744284 7.612119 -1.921343 -67.139178 -10.977130 14.192319 4.146419 -22.020540 21.431234 -10.323330 3.813947 -14.178174 15.624396 -4.753434 -4.576699 67.969047 9.609440 14.519864 -10.534079 13.114540 -4.191075 13.448685 2.153087 -27.065874 
-0.411268 0.020630 0.984717 100.786104 -0.585905 89.005320 4.266001 -0.591952 -5.900981 -4.251074 -6.641476 16.909024 0.702507 5.681314 -12.921291 0.000000 -0.000000 0.000000 0.462389 -3.896328 -5.204487 -0.248953 -2.532516 17.494602 0.041653 -7.342500 -18.410856 0.000000 -0.000000 0.000000 -0.170392 1.434983 1.446660 2.078848 -3.190684 1.195179 -0.533306 -1.623476 1.933616 1.192791 5.869957 -5.055685 -1.488358 -1.136133 0.658460 -15.685155 7.556146 -1.841612 -67.210223 -10.864882 14.093984 4.163529 -20.975283 21.446462 -10.281817 3.923240 -14.148145 15.544945 -4.730740 -4.598864 67.945580 9.757031 14.638199 -10.587453 13.569471 -4.037297 13.244893 2.204126 -27.420543 
-0.411455 0.021474 0.984854 100.938877 -0.602371 89.075667 4.154921 -0.532316 -6.294430 -4.334414 -6.677167 17.435479 0.685164 5.810981 -12.903818 0.000000 -0.000000 0.000000 0.373139 -3.865643 -5.225021 -0.214145 -2.677107 17.412036 0.073131 -7.401602 -18.377239 0.000000 -0.000000 0.000000 -0.176855 1.441319 1.388704 2.107105 -3.223475 1.194748 -0.511629 -1.549365 1.905560 1.196810 5.887327 -4.442803 -1.655451 -1.251328 0.944567 -15.700645 7.457200 -1.670306 -67.268469 -10.766055 13.894450 4.319613 -19.852920 21.234340 -10.262762 4.045266 -13.758466 15.547625 -4.692254 -4.449259 67.871382 9.939036 14.592197 -10.711851 13.767183 -4.021888 13.158261 2.305698 -27.463215 
-0.411734 0.023436 0.984673 101.102627 -0.597563 89.177002 3.996106 -0.668304 -6.867043 -4.445331 -6.269047 18.250992 0.921459 5.929144 -13.187615 0.000000 -0.000000 0.000000 0.244465 -3.962233 -5.403307 -0.146164 -2.600609 17.539854 0.018775 -7.523134 -18.453014 0.000000 -0.000000 0.000000 -0.046527 1.566367 1.490195 2.094201 -3.209250 0.951000 -0.571831 -1.691835 2.003512 1.072282 6.131885 -3.943528 -1.885238 -0.865083 1.517045 -15.671361 7.632848 -1.668504 -67.318740 -10.533457 13.731359 4.287647 -18.761574 21.398862 -10.700648 4.375191 -13.533810 15.493032 -4.823709 -4.550509 67.788565 10.000153 14.743943 -10.571291 14.121283 -3.843133 13.412455 2.354011 -27.660739 
-0.411735 0.025314 0.984738 101.160719 -0.655012 89.066929 3.784200 -0.572286 -7.126608 -4.530469 -5.513827 18.937155 1.098555 6.138439 -13.467193 0.000000 -0.000000 0.000000 0.139732 -3.873842 -5.192337 -0.235545 -2.561830 17.442283 -0.097944 -7.659018 -18.572673 0.000000 -0.000000 0.000000 -0.036874 1.572645 1.851074 2.014005 -3.213004 0.621895 -0.624436 -1.574626 2.053162 1.079394 6.288246 -3.003817 -2.129341 -0.599034 2.075805 -15.654075 7.805297 -1.611213 -67.184544 -10.376257 13.529437 4.166508 -18.091740 21.438317 -10.467043 4.192957 -13.444342 15.632407 -4.857045 -4.432457 67.735985 10.112908 14.940004 -10.460938 14.104263 -3.469816 12.607289 2.240358 -27.082230 
-0.412706 0.028355 0.984475 101.460008 -0.584416 89.028387 3.568162 -0.735430 -7.834793 -4.620702 -4.817945 20.151536 1.368704 6.583960 -13.734281 0.000000 -0.000000 0.000000 -0.053883 -3.930062 -5.124065 -0.102909 -2.789365 17.444983 -0.148273 -7.733193 -18.526642 0.000000 -0.000000 0.000000 0.245168 1.695287 2.110661 1.958051 -3.170823 0.506919 -0.723606 -1.720424 2.158460 0.905667 6.475398 -2.325796 -2.444606 -0.257074 3.075171 -15.691906 7.678862 -1.526771 -67.253459 -10.403280 13.427226 4.273654 -17.545195 21.230810 -10.559978 4.291987 -13.091909 15.578051 -4.880544 -4.473000 67.632719 10.184763 14.963011 -10.372018 14.019454 -3.565406 12.714764 2.297483 -27.056389 
-0.412602 0.031667 0.984226 101.785416 -0.443963 88.969446 3.596530 -0.531565 -8.714909 -5.111686 -4.062719 21.862507 1.554059 6.861992 -14.209271 0.000000 -0.000000 0.000000 -0.139618 -4.238988 -4.916787 -0.033098 -2.795642 17.372495 -0.241288 -7.685059 -18.627602 0.000000 -0.000000 0.000000 0.417309 1.788937 2.233211 2.028764 -3.251067 0.408840 -0.783201 -1.648456 2.202954 0.621545 6.660102 -1.066095 -2.928757 0.385673 4.216998 -15.854428 7.651811 -1.313812 -67.142814 -10.435587 13.239339 4.167503 -17.375386 21.159531 -10.411533 4.464180 -13.099946 15.609043 -4.955869 -4.182974 67.464185 10.196128 14.874323 -10.396308 14.043912 -3.601661 12.429937 2.269228 -27.259743 
-0.413143 0.035965 0.983916 101.875278 -0.283135 88.694913 3.562751 -0.437358 -9.241520 -5.421379 -3.428170 23.286782 1.779525 7.127662 -14.691451 0.000000 -0.000000 0.000000 -0.291628 -4.320150 -4.575338 0.026158 -2.813321 17.426086 -0.210947 -7.712354 -18.734106 0.000000 -0.000000 0.000000 0.778360 1.928108 2.789503 1.991242 -3.039733 0.192929 -0.895975 -1.597419 2.265133 0.314759 7.410420 0.099974 -3.233730 1.043150 6.601949 -15.927595 7.604305 -1.152798 -67.222285 -10.566645 13.061423 4.306454 -17.280761 21.000456 -10.725103 4.174653 -12.832000 15.796120 -4.995055 -3.874711 67.110083 10.351599 14.614972 -10.434880 13.850786 -3.823640 12.792391 2.549006 -27.041705 
